<svg xmlns="http://www.w3.org/2000/svg" viewBox="0 0 1600 420" preserveAspectRatio="xMidYMid slice">
  <defs>
    <linearGradient id="bg" x1="0" y1="0" x2="1" y2="1">
      <stop offset="0%" stop-color="#8bd8ff"/>
      <stop offset="100%" stop-color="#5fa7ff"/>
    </linearGradient>
    <radialGradient id="sun" cx="0.5" cy="0.5" r="0.5">
      <stop offset="0%" stop-color="#fff7aa"/>
      <stop offset="100%" stop-color="#ffd14d"/>
    </radialGradient>
  </defs>
  <rect width="1600" height="420" fill="url(#bg)"/>
  <circle cx="1330" cy="90" r="60" fill="url(#sun)"/>
  <g stroke="#ffd14d" stroke-width="6" stroke-linecap="round" opacity=".9">
    <line x1="1330" y1="5" x2="1330" y2="35"/>
    <line x1="1330" y1="145" x2="1330" y2="175"/>
    <line x1="1245" y1="90" x2="1275" y2="90"/>
    <line x1="1385" y1="90" x2="1415" y2="90"/>
    <line x1="1270" y1="30" x2="1292" y2="52"/>
    <line x1="1368" y1="128" x2="1390" y2="150"/>
    <line x1="1270" y1="150" x2="1292" y2="128"/>
    <line x1="1368" y1="52" x2="1390" y2="30"/>
  </g>
  <path d="M0 305 C250 255 520 325 820 290 C1110 256 1340 320 1600 280 L1600 420 L0 420 Z" fill="#7ecb6f" opacity=".75"/>
  <path d="M0 350 C260 305 540 360 820 332 C1110 308 1370 356 1600 325 L1600 420 L0 420 Z" fill="#52ad5f" opacity=".8"/>
</svg>
